<svg width="164" height="169" viewBox="0 0 164 169" fill="none" xmlns="http://www.w3.org/2000/svg">
<path fill-rule="evenodd" clip-rule="evenodd" d="M120.614 59.3076C120.613 57.3021 119.814 55.379 118.392 53.9609C116.97 52.5429 115.042 51.7458 113.031 51.7449H80.1243C78.1133 51.7459 76.185 52.5429 74.7631 53.961C73.3411 55.3791 72.5419 57.3021 72.5409 59.3076V136.702C72.542 138.707 73.3413 140.63 74.7632 142.048C76.1852 143.466 78.1134 144.263 80.1243 144.264H113.031C115.042 144.263 116.97 143.466 118.392 142.048C119.814 140.63 120.613 138.707 120.614 136.702V59.3076Z" fill="black"/>
<path fill-rule="evenodd" clip-rule="evenodd" d="M117.454 63.9887C119.12 62.867 120.272 61.131 120.655 59.1621C121.038 57.1932 120.622 55.1524 119.498 53.4882L101.101 26.2819C99.9755 24.6188 98.2343 23.469 96.2603 23.0852C94.2863 22.7014 92.241 23.1149 90.5737 24.2349L26.2854 67.4681C24.6192 68.5898 23.4681 70.3258 23.085 72.2947C22.7019 74.2637 23.1182 76.3044 24.2422 77.9687L42.6386 105.175C43.7643 106.838 45.5055 107.988 47.4795 108.372C49.4535 108.755 51.4988 108.342 53.1661 107.222L117.454 63.9887Z" fill="white"/>
<path d="M77.6055 86.6414C80.7778 81.7722 87.0641 80.2248 92.5436 83.7737C94.5873 85.0577 96.1662 86.959 97.0507 89.201L93.9474 93.9642L93.6558 94.0262C92.8929 91.7841 91.4117 89.8553 89.4405 88.5369C86.7891 86.8196 84.0491 87.5533 82.5548 89.847C81.0605 92.1406 81.5018 94.9352 84.1532 96.6525C86.1434 97.9415 88.5301 98.4834 90.8971 98.2606L90.9589 98.5514L87.8556 103.315C85.4393 103.441 83.0488 102.774 81.0499 101.416C75.5703 97.8668 74.4332 91.5106 77.6055 86.6414ZM103.136 114.968L103.074 114.677L108.476 106.385C110.315 103.562 109.591 101.588 107.47 100.214C106.725 99.7554 105.895 99.452 105.029 99.3224C104.163 99.1927 103.28 99.2393 102.432 99.4595L95.6504 109.869L95.3586 109.93L90.7629 106.954L90.7011 106.663L106.563 82.3169L106.854 82.2549L111.45 85.2314L111.512 85.5224L105.88 94.1671C107.731 94.2632 109.527 94.8228 111.103 95.7943C116.406 99.2288 117.104 103.945 114 108.708L108.023 117.882L107.732 117.944L103.136 114.968Z" fill="white"/>
<path d="M42.8184 68.8766L48.6542 68.7925L49.0078 69.0215C48.3511 71.9583 49.4826 73.6943 50.8963 74.6099C52.6639 75.7547 54.5908 75.497 55.74 73.7331C58.4984 69.4991 47.9547 62.9204 52.4373 56.04C55.0813 51.9829 60.0668 51.198 63.9909 53.7395C66.9956 55.6855 68.1354 58.1802 68.3559 62.0855L62.699 62.4356L62.3456 62.2067C62.2571 60.6444 61.5416 59.4279 60.6578 58.8555C59.4205 58.0541 58.4302 58.4167 57.7407 59.4751C55.9016 62.2979 66.3307 69.0525 61.0433 77.1682C58.2849 81.4022 52.3358 82.8172 47.5632 79.7262C43.8477 77.3196 41.757 73.2066 42.8184 68.8766ZM72.3007 94.9954L72.2389 94.7045L77.6412 86.4125C79.48 83.5901 78.7558 81.6155 76.6348 80.2417C75.8901 79.7825 75.0597 79.4788 74.1936 79.3492C73.3276 79.2195 72.4441 79.2666 71.5965 79.4875L64.8151 89.8963L64.5234 89.9583L59.9277 86.9817L59.8659 86.6909L75.7276 62.3444L76.0192 62.2824L80.615 65.259L80.6768 65.5498L75.0447 74.1947C76.8958 74.2902 78.6923 74.8497 80.2684 75.8214C85.5712 79.2559 86.2688 83.9721 83.1652 88.736L77.1883 97.9101L76.8966 97.972L72.3007 94.9954Z" fill="black"/>
</svg>
